# xmcd CD database file
#
# Track frame offsets:
#	150
#	40752
#	64009
#	82771
#	109152
#	125973
#	144637
#	171857
#	192319
#	213602
#	237002
#	254833
#
# Disc length: 4420 seconds
#
# Revision: 0
# Processed by: cddbd v1.5.1PL0 Copyright (c) Steve Scherf et al.
# Submitted via: CDex 1.51
#
DISCID=b211420c
DTITLE=Monk Hughes and The Outer Realm - A Tribute To Brother Weldon
DYEAR=2004
DGENRE=Jazz
TTITLE0=Prelude - Run With The Sun (Afterlife)
TTITLE1=A Piece For Brother Weldon
TTITLE2=Irvine's Vine (Spirit Man's Lament)
TTITLE3=Time
TTITLE4=Welldone
TTITLE5=Liberated
TTITLE6=Keys
TTITLE7=Still Young, Giften and Broke
TTITLE8=Nodlew's Sea
TTITLE9=Day Of Spirit Man
TTITLE10=Master Wel's Tune
TTITLE11=The Beginning, The Middle and The End
EXTD=YEAR: 2004
EXTT0=
EXTT1=
EXTT2=
EXTT3=
EXTT4=
EXTT5=
EXTT6=
EXTT7=
EXTT8=
EXTT9=
EXTT10=
EXTT11=
PLAYORDER=
